<svg xmlns="http://www.w3.org/2000/svg" width="351.168" height="67.332" viewBox="0 0 351.168 67.332"><defs><style>.a{fill:#303030;}</style></defs><path class="a" d="M6.324,0V-65.1h23.9q7.812,0,12.881,2.651a17.865,17.865,0,0,1,7.579,7.161,20.2,20.2,0,0,1,2.511,10A19.956,19.956,0,0,1,50.081-34.41a17.675,17.675,0,0,1-9.719,7.161L53.847,0H40.176L28.086-25.668H18.228V0Zm11.9-34.41H29.481q5.952,0,8.742-2.883a10.5,10.5,0,0,0,2.79-7.626,10.151,10.151,0,0,0-2.743-7.44q-2.743-2.79-8.882-2.79H18.228ZM64.263,0V-65.1h11.9V0ZM118.3,1.116A32.355,32.355,0,0,1,101.37-3.115,28.238,28.238,0,0,1,90.489-14.927a38.509,38.509,0,0,1-3.813-17.531,38.8,38.8,0,0,1,3.813-17.577,28.48,28.48,0,0,1,10.881-11.9A32.079,32.079,0,0,1,118.3-66.216q11.718,0,19.2,5.813t9.347,16.321H133.734a14.011,14.011,0,0,0-5.161-8.324q-3.953-3.022-10.463-3.022-9.021,0-14.136,6.138T98.859-32.457q0,10.7,5.115,16.786T118.11-9.579q6.51,0,10.463-2.837a13.087,13.087,0,0,0,5.161-7.858h13.113A24.518,24.518,0,0,1,137.5-4.557Q130.014,1.116,118.3,1.116Zm69.564,0a33.138,33.138,0,0,1-17.066-4.278A30.283,30.283,0,0,1,159.356-15.02a36,36,0,0,1-4.139-17.531,36,36,0,0,1,4.139-17.53,30.283,30.283,0,0,1,11.439-11.857,33.138,33.138,0,0,1,17.066-4.278,33.2,33.2,0,0,1,17.019,4.278,29.863,29.863,0,0,1,11.439,11.857,36.331,36.331,0,0,1,4.092,17.53,36.331,36.331,0,0,1-4.092,17.531A29.863,29.863,0,0,1,204.879-3.162,33.2,33.2,0,0,1,187.86,1.116Zm0-10.7q9.3,0,14.833-6.138t5.534-16.833q0-10.695-5.534-16.833T187.86-55.521q-9.3,0-14.88,6.138T167.4-32.55q0,10.7,5.58,16.833T187.86-9.579Zm72.54,10.7a32.355,32.355,0,0,1-16.926-4.232,28.238,28.238,0,0,1-10.881-11.811,38.509,38.509,0,0,1-3.813-17.531,38.8,38.8,0,0,1,3.813-17.577,28.48,28.48,0,0,1,10.881-11.9A32.079,32.079,0,0,1,260.4-66.216q11.718,0,19.2,5.813t9.346,16.321H275.838a14.011,14.011,0,0,0-5.161-8.324q-3.953-3.022-10.462-3.022-9.021,0-14.136,6.138t-5.115,16.833q0,10.7,5.115,16.786t14.136,6.092q6.51,0,10.462-2.837a13.087,13.087,0,0,0,5.161-7.858h13.113A24.518,24.518,0,0,1,279.6-4.557Q272.118,1.116,260.4,1.116Zm68.541,0a32.355,32.355,0,0,1-16.926-4.232,28.238,28.238,0,0,1-10.881-11.811,38.509,38.509,0,0,1-3.813-17.531,38.8,38.8,0,0,1,3.813-17.577,28.481,28.481,0,0,1,10.881-11.9,32.079,32.079,0,0,1,16.926-4.278q11.718,0,19.2,5.813t9.346,16.321H344.379a14.011,14.011,0,0,0-5.161-8.324q-3.953-3.022-10.463-3.022-9.021,0-14.136,6.138T309.5-32.457q0,10.7,5.115,16.786t14.136,6.092q6.51,0,10.463-2.837a13.087,13.087,0,0,0,5.161-7.858h13.113a24.518,24.518,0,0,1-9.346,15.717Q340.659,1.116,328.941,1.116Z" transform="translate(-6.324 66.216)"/></svg>